<svg xmlns="http://www.w3.org/2000/svg" width="169" height="40" viewBox="0 0 169 40" style="color: white;">
    <path fill="currentColor" d="M24.928 18.607V2.908h-4.2V1.647H34.35v1.261h-4.2V37.05h4.2v1.262H20.728V37.05h4.2V20.2H9.422v16.85h4.2v1.262H0V37.05h4.2V2.91H0V1.646h13.621v1.261H9.422v15.699h15.506z"/>
    <path fill="currentColor" d="M54.539 34.524c-.269.933-.808 2.47-1.885 2.47-1.13 0-1.13-.878-1.13-2.525V21.406c0-2.195 0-5.379-7.322-5.379-6.407 0-8.615 3.293-8.615 5.27 0 1.536.808 2.634 2.262 2.634 1.345 0 2.207-.934 2.207-2.306 0-1.811-1.615-2.085-1.615-2.524 0-1.592 3.822-1.976 5.007-1.976 1.884 0 3.876.768 3.876 3.348v5.214c-8.237 0-13.352 2.854-13.514 7.96 0 4.06 2.908 5.377 6.3 5.377 2.746 0 5.438-1.042 7.268-3.347.377 2.03 1.507 3.347 3.5 3.347 2.476 0 4.415-1.92 4.576-4.5h-.915zm-7.215-2.58c0 2.305-.753 2.909-1.184 3.349-1.292 1.152-2.423 1.591-4.146 1.591-2.477 0-4.145-1.646-4.145-4.336 0-5.05 5.976-5.653 9.475-5.708v5.104z"/>
    <path fill="currentColor" d="M91.042 37.05v1.261h-9.907V37.05h3.015V21.461c0-2.58-1.292-3.842-3.015-3.842-3.337 0-6.03 4.885-6.03 7.903V37.05h2.854v1.262h-9.907V37.05h2.853V21.461c0-2.58-1.291-3.842-3.014-3.842-3.338 0-6.03 4.885-6.03 9.056V37.05h3.015v1.262h-9.907V37.05h2.692V17.84h-2.692v-1.263h.861c1.992 0 4.092-.055 6.03-.549v5.214h.108c1.884-3.073 3.338-5.214 7.269-5.214 3.069 0 5.437 1.866 5.76 5.16h.108c1.723-3.02 3.93-5.16 7.43-5.16 1.992 0 5.815.768 5.815 6.422v14.6h2.692z"/>
    <path fill="currentColor" d="M96.102 5.295c1.292 0 2.746 1.208 2.746 2.635 0 1.702-1.185 2.909-2.746 2.909-1.562 0-2.584-1.317-2.584-2.909 0-1.427 1.237-2.635 2.584-2.635zm-5.654 33.016V37.05h3.607V17.84h-3.607v-1.263h1.778c1.991 0 4.091-.055 6.029-.549v21.022h3.177v1.262H90.448z"/>
    <path fill="currentColor" d="M101.217 38.311V37.05h4.145V1.757h-4.145V.494h2.315c1.992 0 4.092-.11 6.03-.494v37.05h4.145v1.261h-12.49zM134.921 16.027c-5.654 0-10.392 4.83-10.392 11.471 0 6.642 4.738 11.526 10.392 11.526 5.653 0 10.391-4.884 10.391-11.526 0-6.64-4.738-11.47-10.391-11.47zm0 1.098c5.437 0 5.491 5.817 5.491 10.373 0 4.611-.054 10.428-5.491 10.428-5.438 0-5.492-5.817-5.492-10.428 0-4.556.054-10.373 5.492-10.373z"/>
    <path fill="currentColor" d="M147.841 17.838h-2.961v-1.262h1.13c1.024 0 2.047 0 3.015-.11a18.173 18.173 0 003.015-.439v5.819h.108c1.508-3.459 3.607-5.819 7.538-5.819 1.939 0 6.407.44 6.407 5.489v15.533H169v1.262h-9.906V37.05h2.8V22.23c0-4.007-1.24-4.61-3.393-4.61-3.661 0-6.461 5.104-6.461 9.22v10.21h2.908v1.262H144.88V37.05h2.961V17.84zM112.086 16.47h3.177V9.719c1.401 0 2.746 0 4.092-.22v6.97h4.739v1.264h-4.739v16.795c0 .988 0 2.47 2.046 2.47 1.4 0 2.154-.988 3.015-2.03l.862.603c-1.023 2.086-3.661 3.348-5.815 3.348-3.876 0-4.307-2.14-4.307-4.775V17.733h-3.07V16.47z"/>
</svg>
